<mxfile host="app.diagrams.net" modified="2023-12-01T15:59:51.800Z" agent="Mozilla/5.0 (X11; Linux x86_64) AppleWebKit/537.36 (KHTML, like Gecko) Chrome/118.0.0.0 Safari/537.36" version="22.1.5" etag="7umMKUKM8PnAxFxLoKAd" type="github">
  <diagram name="Page-1" id="Hi7sXs74q9N3hESQYOI6">
    <mxGraphModel>
      <root>
        <mxCell id="0" />
        <mxCell id="1" parent="0" />
      </root>
    </mxGraphModel>
  </diagram>
</mxfile>
